<mxfile modified="2022-11-17T16:08:13.105Z" host="app.diagrams.net" agent="5.0 (Macintosh; Intel Mac OS X 10_15_7) AppleWebKit/537.36 (KHTML, like Gecko) Chrome/107.0.0.0 Safari/537.36" etag="JsyJonNoD29WtWRDqoeM" version="20.1.4" type="github">
  <diagram id="Ht1M8jgEwFfnCIfOTk4-" name="Page-1">
    <mxGraphModel dx="1426" dy="769" grid="1" gridSize="10" guides="1" tooltips="1" connect="1" arrows="1" fold="1" page="1" pageScale="1" pageWidth="1169" pageHeight="827" math="0" shadow="0">
      <root>
        <mxCell id="0" />
        <mxCell id="1" parent="0" />
        <mxCell id="lv0qEiH-bSBOuW2JiFhO-22" value="" style="group" vertex="1" connectable="0" parent="1">
          <mxGeometry x="310" y="240" width="450" height="320" as="geometry" />
        </mxCell>
        <mxCell id="lv0qEiH-bSBOuW2JiFhO-9" value="" style="rounded=1;arcSize=10;dashed=0;fillColor=none;gradientColor=none;strokeWidth=2;strokeColor=#F58536;" vertex="1" parent="lv0qEiH-bSBOuW2JiFhO-22">
          <mxGeometry y="25.296442687747035" width="450" height="294.70355731225294" as="geometry" />
        </mxCell>
        <mxCell id="lv0qEiH-bSBOuW2JiFhO-5" value="" style="sketch=0;points=[[0,0,0],[0.25,0,0],[0.5,0,0],[0.75,0,0],[1,0,0],[0,1,0],[0.25,1,0],[0.5,1,0],[0.75,1,0],[1,1,0],[0,0.25,0],[0,0.5,0],[0,0.75,0],[1,0.25,0],[1,0.5,0],[1,0.75,0]];outlineConnect=0;fontColor=#232F3E;gradientColor=#F78E04;gradientDirection=north;fillColor=#D05C17;strokeColor=#ffffff;dashed=0;verticalLabelPosition=bottom;verticalAlign=top;align=center;html=1;fontSize=12;fontStyle=0;aspect=fixed;shape=mxgraph.aws4.resourceIcon;resIcon=mxgraph.aws4.ec2;" vertex="1" parent="lv0qEiH-bSBOuW2JiFhO-22">
          <mxGeometry x="28.785714285714285" y="89.20711979126301" width="62.74509803921569" height="62.74509803921569" as="geometry" />
        </mxCell>
        <mxCell id="lv0qEiH-bSBOuW2JiFhO-10" value="" style="dashed=0;html=1;shape=mxgraph.aws3.cloud;fillColor=#F58536;gradientColor=none;dashed=0;strokeWidth=1;strokeColor=#F58536;" vertex="1" parent="lv0qEiH-bSBOuW2JiFhO-22">
          <mxGeometry x="364.2857142857143" width="55.714285714285715" height="45.533596837944664" as="geometry" />
        </mxCell>
        <mxCell id="lv0qEiH-bSBOuW2JiFhO-20" value="" style="group" vertex="1" connectable="0" parent="lv0qEiH-bSBOuW2JiFhO-22">
          <mxGeometry x="184.28571428571428" y="63.236601307189545" width="233.57142857142856" height="114.54117647058824" as="geometry" />
        </mxCell>
        <mxCell id="lv0qEiH-bSBOuW2JiFhO-11" value="" style="dashed=0;outlineConnect=0;html=1;align=center;labelPosition=center;verticalLabelPosition=bottom;verticalAlign=top;shape=mxgraph.weblogos.java;strokeColor=#F58536;strokeWidth=1;fillColor=#F58536;" vertex="1" parent="lv0qEiH-bSBOuW2JiFhO-20">
          <mxGeometry x="42.46753246753247" y="23.428877005347594" width="36.52207792207792" height="67.68342245989305" as="geometry" />
        </mxCell>
        <mxCell id="lv0qEiH-bSBOuW2JiFhO-12" value="" style="dashed=0;outlineConnect=0;html=1;align=center;labelPosition=center;verticalLabelPosition=bottom;verticalAlign=top;shape=mxgraph.weblogos.java;strokeColor=#F58536;strokeWidth=1;fillColor=#F58536;" vertex="1" parent="lv0qEiH-bSBOuW2JiFhO-20">
          <mxGeometry x="106.16883116883116" y="23.428877005347594" width="36.52207792207792" height="67.68342245989305" as="geometry" />
        </mxCell>
        <mxCell id="lv0qEiH-bSBOuW2JiFhO-13" value="" style="shape=waypoint;sketch=0;fillStyle=solid;size=6;pointerEvents=1;points=[];fillColor=none;resizable=0;rotatable=0;perimeter=centerPerimeter;snapToPoint=1;strokeColor=#F55318;strokeWidth=1;" vertex="1" parent="lv0qEiH-bSBOuW2JiFhO-20">
          <mxGeometry x="148.63636363636365" y="36.44491978609625" width="40" height="40" as="geometry" />
        </mxCell>
        <mxCell id="lv0qEiH-bSBOuW2JiFhO-14" value="" style="shape=waypoint;sketch=0;fillStyle=solid;size=6;pointerEvents=1;points=[];fillColor=none;resizable=0;rotatable=0;perimeter=centerPerimeter;snapToPoint=1;strokeColor=#F55318;strokeWidth=1;" vertex="1" parent="lv0qEiH-bSBOuW2JiFhO-20">
          <mxGeometry x="159.25324675324677" y="36.44491978609625" width="40" height="40" as="geometry" />
        </mxCell>
        <mxCell id="lv0qEiH-bSBOuW2JiFhO-15" value="" style="shape=waypoint;sketch=0;fillStyle=solid;size=6;pointerEvents=1;points=[];fillColor=none;resizable=0;rotatable=0;perimeter=centerPerimeter;snapToPoint=1;strokeColor=#F55318;strokeWidth=1;" vertex="1" parent="lv0qEiH-bSBOuW2JiFhO-20">
          <mxGeometry x="169.8701298701299" y="36.44491978609625" width="40" height="40" as="geometry" />
        </mxCell>
        <mxCell id="lv0qEiH-bSBOuW2JiFhO-19" value="" style="rounded=1;arcSize=10;dashed=0;fillColor=none;gradientColor=none;strokeWidth=2;strokeColor=#1CD660;" vertex="1" parent="lv0qEiH-bSBOuW2JiFhO-20">
          <mxGeometry width="233.57142857142856" height="114.54117647058824" as="geometry" />
        </mxCell>
        <mxCell id="lv0qEiH-bSBOuW2JiFhO-23" value="" style="edgeStyle=orthogonalEdgeStyle;html=1;endArrow=block;elbow=vertical;startArrow=none;endFill=1;strokeColor=#d6b656;rounded=1;strokeWidth=2;fillColor=#fff2cc;" edge="1" parent="lv0qEiH-bSBOuW2JiFhO-22">
          <mxGeometry width="100" relative="1" as="geometry">
            <mxPoint x="103.78571428571428" y="104.53754940711461" as="sourcePoint" />
            <mxPoint x="168.07142857142856" y="104.8888888888889" as="targetPoint" />
            <Array as="points">
              <mxPoint x="157.35714285714286" y="104.8888888888889" />
              <mxPoint x="157.35714285714286" y="104.8888888888889" />
            </Array>
          </mxGeometry>
        </mxCell>
        <mxCell id="lv0qEiH-bSBOuW2JiFhO-26" value="" style="edgeStyle=orthogonalEdgeStyle;html=1;endArrow=none;elbow=vertical;startArrow=block;startFill=1;strokeColor=#EA8F85;rounded=1;strokeWidth=2;" edge="1" parent="lv0qEiH-bSBOuW2JiFhO-22">
          <mxGeometry width="100" relative="1" as="geometry">
            <mxPoint x="100.57142857142857" y="131.0344571029993" as="sourcePoint" />
            <mxPoint x="168.07142857142856" y="131.03267973856208" as="targetPoint" />
          </mxGeometry>
        </mxCell>
        <mxCell id="lv0qEiH-bSBOuW2JiFhO-30" value="" style="endArrow=classic;html=1;rounded=1;strokeColor=#EA8F85;strokeWidth=2;" edge="1" parent="lv0qEiH-bSBOuW2JiFhO-22">
          <mxGeometry width="50" height="50" relative="1" as="geometry">
            <mxPoint x="353.6428571428571" y="227.97385620915034" as="sourcePoint" />
            <mxPoint x="353.6428571428571" y="184.05228758169935" as="targetPoint" />
          </mxGeometry>
        </mxCell>
        <mxCell id="lv0qEiH-bSBOuW2JiFhO-34" value="" style="endArrow=none;html=1;rounded=1;strokeColor=#d6b656;strokeWidth=2;startArrow=block;startFill=1;endFill=0;fillColor=#fff2cc;" edge="1" parent="lv0qEiH-bSBOuW2JiFhO-22">
          <mxGeometry width="50" height="50" relative="1" as="geometry">
            <mxPoint x="332.2142857142857" y="227.97385620915034" as="sourcePoint" />
            <mxPoint x="332.2142857142857" y="184.05228758169935" as="targetPoint" />
          </mxGeometry>
        </mxCell>
        <mxCell id="lv0qEiH-bSBOuW2JiFhO-40" value="" style="endArrow=classic;html=1;rounded=1;strokeColor=#EA8F85;strokeWidth=2;" edge="1" parent="lv0qEiH-bSBOuW2JiFhO-22">
          <mxGeometry width="50" height="50" relative="1" as="geometry">
            <mxPoint x="69.10714285714286" y="43.92156862745098" as="sourcePoint" />
            <mxPoint x="69.10714285714286" as="targetPoint" />
          </mxGeometry>
        </mxCell>
        <mxCell id="lv0qEiH-bSBOuW2JiFhO-41" value="" style="endArrow=none;html=1;rounded=1;strokeColor=#d6b656;strokeWidth=2;startArrow=block;startFill=1;endFill=0;fillColor=#fff2cc;" edge="1" parent="lv0qEiH-bSBOuW2JiFhO-22">
          <mxGeometry width="50" height="50" relative="1" as="geometry">
            <mxPoint x="47.67857142857143" y="43.92156862745098" as="sourcePoint" />
            <mxPoint x="47.67857142857143" as="targetPoint" />
          </mxGeometry>
        </mxCell>
        <mxCell id="lv0qEiH-bSBOuW2JiFhO-61" value="" style="group" vertex="1" connectable="0" parent="lv0qEiH-bSBOuW2JiFhO-22">
          <mxGeometry x="276.57" y="218" width="141.43" height="76.41" as="geometry" />
        </mxCell>
        <mxCell id="lv0qEiH-bSBOuW2JiFhO-35" value="" style="sketch=0;outlineConnect=0;fontColor=#232F3E;gradientColor=none;fillColor=#2E27AD;strokeColor=none;dashed=0;verticalLabelPosition=bottom;verticalAlign=top;align=center;html=1;fontSize=12;fontStyle=0;aspect=fixed;pointerEvents=1;shape=mxgraph.aws4.rds_mysql_instance;" vertex="1" parent="lv0qEiH-bSBOuW2JiFhO-61">
          <mxGeometry x="28.285999999999994" y="29.98887096774193" width="35.329354838709676" height="35.329354838709676" as="geometry" />
        </mxCell>
        <mxCell id="lv0qEiH-bSBOuW2JiFhO-59" value="" style="rounded=1;arcSize=10;dashed=0;fillColor=none;gradientColor=none;strokeWidth=2;strokeColor=#4733FF;" vertex="1" parent="lv0qEiH-bSBOuW2JiFhO-61">
          <mxGeometry y="18.897096774193546" width="141.43" height="57.512903225806454" as="geometry" />
        </mxCell>
        <mxCell id="lv0qEiH-bSBOuW2JiFhO-6" value="" style="sketch=0;points=[[0,0,0],[0.25,0,0],[0.5,0,0],[0.75,0,0],[1,0,0],[0,1,0],[0.25,1,0],[0.5,1,0],[0.75,1,0],[1,1,0],[0,0.25,0],[0,0.5,0],[0,0.75,0],[1,0.25,0],[1,0.5,0],[1,0.75,0]];outlineConnect=0;fontColor=#232F3E;gradientColor=#4D72F3;gradientDirection=north;fillColor=#3334B9;strokeColor=#ffffff;dashed=0;verticalLabelPosition=bottom;verticalAlign=top;align=center;html=1;fontSize=12;fontStyle=0;aspect=fixed;shape=mxgraph.aws4.resourceIcon;resIcon=mxgraph.aws4.rds;" vertex="1" parent="lv0qEiH-bSBOuW2JiFhO-61">
          <mxGeometry x="94.28666666666666" width="32.86451612903225" height="32.86451612903225" as="geometry" />
        </mxCell>
        <mxCell id="lv0qEiH-bSBOuW2JiFhO-39" value="" style="shape=mxgraph.signs.science.nuclear_1;html=1;pointerEvents=1;verticalLabelPosition=bottom;verticalAlign=top;align=center;sketch=0;fillColor=#8CCDFF;strokeColor=#8CCDFF;" vertex="1" parent="1">
          <mxGeometry x="330" y="150" width="70" height="70" as="geometry" />
        </mxCell>
      </root>
    </mxGraphModel>
  </diagram>
</mxfile>
